<?xml version="1.0" encoding="utf-8"?>
<!-- Generator: Adobe Illustrator 25.4.1, SVG Export Plug-In . SVG Version: 6.00 Build 0)  -->
<svg version="1.1" id="Layer_1" xmlns="http://www.w3.org/2000/svg" xmlns:xlink="http://www.w3.org/1999/xlink" x="0px" y="0px"
	 viewBox="0 0 512 512" style="enable-background:new 0 0 512 512;" xml:space="preserve">
<style type="text/css">
	.st0{fill:#13AFFE;stroke:#000000;stroke-width:7;stroke-miterlimit:10;}
	.st1{fill:#D6BE78;}
	.st2{fill:#629F9A;}
	.st3{fill:#442F12;}
	.st4{fill:#C28147;}
	.st5{fill:#2C5B82;}
	.st6{fill:#AD63A0;}
</style>
<path class="st0" d="M433.6,449.1L387.5,403c-3.3-3.3-3.3-8.7,0-12l0,0c3.3-3.3,8.7-3.3,12,0l46.1,46.1c3.3,3.3,3.3,8.7,0,12l0,0
	C442.3,452.4,436.9,452.4,433.6,449.1z"/>
<path class="st0" d="M62.3,77.2l11.3-11.3l48,48l-11.3,11.3L62.3,77.2z"/>
<circle class="st1" cx="280" cy="232" r="208"/>
<path class="st2" d="M132,496H16v-16h116c11,0,20-9,20-20s-9-20-20-20H84c-19.9,0-36-16.1-36-36s16.1-36,36-36h44v16H84
	c-11,0-20,9-20,20s9,20,20,20h48c19.9,0,36,16.1,36,36S151.9,496,132,496z"/>
<path class="st3" d="M88.1,312.3c71-19.3,243-78.9,344.4-221.6c-9.6-10.4-20.3-19.8-31.8-28C299.5,204,133.9,259.4,76.5,275
	C79.2,287.7,83,300.2,88.1,312.3L88.1,312.3z"/>
<path class="st3" d="M106,345.9c7.4,11.2,15.8,21.7,25.2,31.4c135-29.3,257.1-101.3,348-205.4c-5.3-17.4-12.8-34.1-22.4-49.6
	C352.2,269.6,172.7,328.4,106,345.9z"/>
<path class="st1" d="M88.1,312.3C93,324,99,335.3,106,345.9c66.7-17.4,246.2-76.3,350.7-223.6c-7-11.3-15.1-21.9-24.2-31.7
	C331,233.3,159,293,88.1,312.3L88.1,312.3z"/>
<path class="st4" d="M366.2,105L200.3,39.8c-16.6,6.9-32.3,15.9-46.6,26.9L331.8,139C343.6,128.5,355.2,117.1,366.2,105z"/>
<path class="st1" d="M400.7,62.7C342.3,21,266.6,12.4,200.3,39.8L366.2,105C378.6,91.6,390.1,77.5,400.7,62.7z"/>
<path class="st1" d="M153.8,66.7c-11.5,8.8-22,18.8-31.5,29.7l173,72.6c12.3-9.3,24.6-19.2,36.5-30L153.8,66.7z"/>
<path class="st4" d="M122.3,96.4c-10.7,12.5-19.9,26.2-27.5,40.8l149.1,66.3c17.7-10.6,34.9-22.1,51.4-34.5L122.3,96.4z"/>
<path class="st1" d="M94.8,137.3c-7.4,14.4-13,29.6-16.9,45.3L184,232l3.4,1.7c18.1-8.6,37.2-18.6,56.6-30.2L94.8,137.3z"/>
<path class="st4" d="M140.1,253.9L184,232L78,182.5c-3.8,15.7-5.8,31.7-5.9,47.9l63.3,25.3C136.9,255.2,138.5,254.6,140.1,253.9z"/>
<path class="st1" d="M396.5,250.8l60.4,90.6c11.4-18.4,19.9-38.5,25-59.6l-49.8-61.7C420.3,231,408.4,241.3,396.5,250.8z"/>
<path class="st4" d="M432.2,220.1l49.8,61.7c8.9-36.2,7.9-74.2-2.8-109.9C464.3,188.7,448.6,204.8,432.2,220.1z"/>
<path class="st4" d="M356.1,280.7l71,98.4c11.4-11.4,21.4-24,29.8-37.7l-60.4-90.6C383,261.6,369.5,271.6,356.1,280.7L356.1,280.7z"
	/>
<path class="st1" d="M383.9,412.2c15.8-9.1,30.3-20.2,43.2-33.1l-71-98.4c-11.9,8.1-23.6,15.5-35.3,22.4L383.9,412.2z"/>
<path class="st4" d="M340.2,431.1c15.2-4.6,29.9-11,43.7-18.9l-63.2-109.1c-11,6.5-21.9,12.5-32.7,18L340.2,431.1z"/>
<path class="st1" d="M281.8,440c19.8-0.1,39.5-3.1,58.5-8.8l-52.1-110.1c-16.9,8.7-33.4,16.2-49.1,22.7L281.8,440z"/>
<path class="st4" d="M219.9,431.1c19.5,5.9,39.8,8.9,60.1,8.9c0.6,0,1.2,0,1.8,0L239,343.8c-16.9,7-33,12.8-47.9,17.5L219.9,431.1z"
	/>
<path class="st1" d="M219.9,431.1l-28.7-69.8c-19.7,6.4-39.6,11.7-59.8,15.9C155.8,402.4,186.3,420.9,219.9,431.1L219.9,431.1z"/>
<path class="st5" d="M312,48h16v16h-16V48z"/>
<path class="st5" d="M344,64h16v16h-16V64z"/>
<circle class="st6" cx="48" cy="48" r="24"/>
<path d="M433.4,79.9C392.8,39,337.6,16,280,16c-22,0-44,3.4-65.1,10.1c-20.9,6.6-40.7,16.4-58.7,29c-17.5,12.3-32.7,27.1-46.1,43.7
	c-0.1-0.1-0.3-0.2-0.4-0.2c-1.5,2.1-3.1,4.2-4.6,6.3c-0.9,1.2-1.7,2.3-2.5,3.5c-12.3,18.2-22.2,38.1-28.8,59.1
	c-6.4,20.4-9.8,41.8-9.9,63.3c-0.1,21.3,2.9,42.7,9,63.2c6.2,20.8,15.6,40.6,27.8,58.6c1.8,2.7,3.7,5.3,5.6,7.9
	c0.8,1.1,4.8,7.7,6,7.7H83.9c-19.9,0-36,16.1-36,36s16.1,36,36,36h48c11,0,20,9,20,20s-9,20-20,20H16v16h116c19.9,0,36-16.1,36-36
	s-16.1-36-36-36H84c-11,0-20-9-20-20s9-20,20-20h42.7c84,84.7,220.7,85.3,305.4,1.3S517.4,164.6,433.4,79.9z M280,32
	c38.8,0,76.8,11.3,109.3,32.6c-8.1,10.8-16.5,21.1-25.2,30.9L223.2,40.2C241.7,34.8,260.8,32,280,32z M200.5,48.5l151.8,59.6
	c-7.2,7.5-14.6,14.7-22.2,21.6L170.4,64.8C180,58.5,190,53.1,200.5,48.5z M155.2,75.9l161.5,65.6c-7.5,6.4-15,12.4-22.7,18.2
	L135.9,93.5C142,87.2,148.4,81.3,155.2,75.9z M124.7,106.1L124.7,106.1L279,170.8c-12,8.5-24,16.3-35.9,23.6L106,133.5
	C111.5,123.9,117.8,114.7,124.7,106.1z M98.7,147.7L98.7,147.7l127.5,56.6c-13.3,7.5-26.4,14.3-39,20.4l-99.7-46.6
	C90.3,167.7,94.1,157.5,98.7,147.7z M83.7,194L83.7,194l84.6,39.4c-11.6,5.2-22.6,9.7-32.9,13.6l-55.1-22
	C80.6,214.6,81.7,204.3,83.7,194z M80.3,242.3L80.3,242.3l32.5,13c-11.7,4.1-21.8,7.2-30,9.6C81.5,257.4,80.7,249.9,80.3,242.3z
	 M86,280.6L86,280.6c68.2-19.4,218.6-75.1,316.4-206.7c6.9,5.4,13.5,11.2,19.7,17.4C324.5,224,164.7,282.2,92.9,302.6
	C90.2,295.4,87.9,288.1,86,280.6z M109.6,336.6c-3.8-6.2-7.3-12.6-10.4-19.2c73.9-21.2,234.1-80.4,333.8-214c5,6,9.6,12.2,13.9,18.7
	l0,0C347.1,259.1,182.2,317,109.6,336.6z M119.1,350.6c75.8-21.2,236-79.7,336.8-213.7c5.7,10.6,10.5,21.6,14.2,33
	c-88.3,99.9-206,169.4-336.1,198.5C128.7,362.8,123.7,356.9,119.1,350.6z M147.7,381.8L147.7,381.8c11.9-2.8,24.9-6.3,39-10.6
	l19.1,46.4C184.5,409.1,164.8,397,147.7,381.8z M225.8,424.5L225.8,424.5l-24-58.2c10.6-3.6,21.6-7.6,33-12.1l34.4,77.5
	C254.6,430.9,240,428.5,225.8,424.5z M287,431.8l-37.3-83.7c11.3-4.8,22.9-10.2,34.7-16.1l44.5,93.9
	C315.2,429.4,301.1,431.4,287,431.8z M344.5,421.3l-45.7-96.6c6.4-3.4,12.8-6.9,19.2-10.6l55,95
	C363.8,413.9,354.3,417.9,344.5,421.3z M386.7,401l-55-95c7.5-4.5,15-9.3,22.5-14.3l62.3,86.3C407.4,386.6,397.4,394.3,386.7,401z
	 M427.9,366.4l-60.6-83.8c9.1-6.4,18.2-13.1,27.3-20.2l52.6,78.9C441.5,350.2,435,358.6,427.9,366.4z M456.4,326.1l-49.1-73.6
	c8-6.6,16.1-13.5,24.1-20.7l41.9,51.9C469.3,298.4,463.7,312.6,456.4,326.1z M443.1,220.8c10.8-10.2,21.5-21.1,32.1-32.5
	c3.2,14.4,4.8,29,4.8,43.7c0,10.5-0.8,21.1-2.5,31.5L443.1,220.8z"/>
<path d="M71.4,70c14.2-16.1,9.8-42.1-10.1-51.2C57.1,17,52.6,16,48,16c-17.7,0-32,14.3-32,32s14.3,32,32,32c8.5,0,17.6-3.5,23.2-9.7
	C71.3,70.2,71.3,70.1,71.4,70z M48,64c-8.8,0-16-7.2-16-16s7.2-16,16-16s16,7.2,16,16S56.8,64,48,64z"/>
<path d="M312,48h16v16h-16V48z"/>
<path d="M344,64h16v16h-16V64z"/>
</svg>
